<svg version="1.0" xmlns="http://www.w3.org/2000/svg" width="94.667" height="94.667" viewBox="0 0 71 71"><path d="M9 5.2C4.2 7 4.1 7.8 4 35.6v26.1l2.6 2.4c2.6 2.4 2.6 2.4 27.2 2.5 13.6.1 25.8-.3 27.1-.8 4.9-1.8 5-2.6 5.1-30.4 0-24.8-.1-26.1-2-28.2-1.2-1.2-2.4-2.3-2.8-2.4-2.9-.6-50.3-.3-52.2.4zm9 3.7c.3 0 .5 1.3.4 2.8-.1 1.6-.3 3.8-.3 5-.1 2.1-.6 2.3-5.1 2.3H8v-3.9c0-4.9 2-7 6.2-6.7 1.8.2 3.5.4 3.8.5zM47.6 20c0 6.3-.1 12-.3 12.5-.3.9-20.8 1.3-24.3.6-.5-.1-.6-24.4-.1-24.7h12.4l12.2.1.1 11.5zM60.5 9.6c.8.9 1.5 3.3 1.5 5.5V19H51.5V8.2h3.7c2.1-.1 4.5.6 5.3 1.4zM18.1 24c.1 1.3.1 7.8 0 8.7-.1.5-2.4.8-5.1.8l-5 .1V23h5c2.8 0 5 .4 5.1 1zM62 28.3v5.2h-5c-5.2 0-5.2 0-5.2-5 0-5.5 0-5.5 5.2-5.5h5v5.3zm-44.5 9.9c.9.5 1.1 3 .6 8.3C18 47.6 16.7 48 13 48H8v-4.8c0-2.7.2-5.1.5-5.4.7-.7 7.8-.4 9 .4zm29.6-.3c.3 0 .5 5.6.5 12.3l-.1 12.3-12.2.1c-6.8.1-12.4-.1-12.4-.5-.3-1.2-.6-23.6-.3-24.1.2-.5 22.4-.5 24.5-.1zM62 42.8v5.3l-5.2-.3-5.3-.3.2-3.8c.2-5.8.6-6.3 5.7-6.3H62v5.4zM18.1 54.2c0 1.3.2 3.5.3 5 .1 1.6.2 2.8.1 2.8 0 .1-1.6.3-3.6.6-4.7.7-6.9-1.4-6.9-6.7V52h5c4.5 0 5 .2 5.1 2.2zM62 55.7c0 5.2-1.1 6.5-5.9 6.9-4.4.3-4.3.5-4.3-6.6 0-1.7.1-3.2.1-3.5.1-.3 2.4-.5 5.1-.5h5v3.7z"/></svg>