<svg xmlns="http://www.w3.org/2000/svg" aria-hidden="true" style="width:0;height:0;position:absolute;overflow:hidden"><defs><symbol id="close" viewBox="0 0 32 32"><path d="M5.86 4.04 4.04 5.86 14.18 16 3.98 26.22l1.8 1.8L16 17.82l10.2 10.2 1.82-1.82L17.82 16 27.96 5.86l-1.82-1.82L16 14.18z"/></symbol><symbol id="favorite" viewBox="0 0 34 32"><path d="m17.231 31.704-2.412-2.412C5.859 21.366.001 16.024.001 9.477.001 4.135 4.136 0 9.478 0c2.929 0 5.858 1.378 7.754 3.618C19.127 1.378 22.057 0 24.986 0c5.342 0 9.477 4.135 9.477 9.477 0 6.548-5.858 11.889-14.818 19.815l-2.412 2.412z"/></symbol><symbol id="film" viewBox="0 0 32 32"><path stroke-linecap="round" stroke-linejoin="round" stroke-width="2" d="M26.427 2.667H5.574a2.907 2.907 0 0 0-2.907 2.907v20.853a2.907 2.907 0 0 0 2.907 2.907h20.853a2.907 2.907 0 0 0 2.907-2.907V5.574a2.907 2.907 0 0 0-2.907-2.907zm-17.094 0v26.667M22.667 2.667v26.667M2.667 16h26.667M2.667 9.334h6.667M2.667 22.666h6.667m13.333 0h6.667M22.667 9.334h6.667"/></symbol><symbol id="search" viewBox="0 0 32 32"><path stroke-linecap="round" stroke-linejoin="round" stroke-width="2.286" d="M14.667 25.333c5.891 0 10.667-4.776 10.667-10.667S20.558 3.999 14.667 3.999 4 8.775 4 14.666s4.776 10.667 10.667 10.667zM27.999 28l-5.8-5.8"/></symbol><symbol id="linkedin" viewBox="0 0 32 32"><path d="M7.449 10.295H1.025a.516.516 0 0 0-.516.516v20.638c0 .285.231.516.516.516h6.424a.516.516 0 0 0 .516-.516V10.811a.516.516 0 0 0-.516-.516zM4.239.035A4.242 4.242 0 0 0 0 4.269a4.242 4.242 0 0 0 4.239 4.236c2.336 0 4.236-1.9 4.236-4.236S6.575.035 4.239.035zM23.789 9.782c-2.58 0-4.487 1.109-5.644 2.369v-1.34a.516.516 0 0 0-.516-.516h-6.152a.516.516 0 0 0-.516.516v20.638c0 .285.231.516.516.516h6.41a.516.516 0 0 0 .516-.516V21.238c0-3.441.935-4.781 3.333-4.781 2.612 0 2.82 2.149 2.82 4.958v10.034c0 .285.231.516.516.516h6.412a.516.516 0 0 0 .516-.516v-11.32c0-5.116-.976-10.347-8.211-10.347z"/></symbol><symbol id="github" viewBox="0 0 32 32"><path d="M16 0C7.16 0 0 7.16 0 16c0 7.08 4.58 13.06 10.94 15.18.8.14 1.1-.34 1.1-.76 0-.38-.02-1.64-.02-2.98-4.02.74-5.06-.98-5.38-1.88-.18-.46-.96-1.88-1.64-2.26-.56-.3-1.36-1.04-.02-1.06 1.26-.02 2.16 1.16 2.46 1.64 1.44 2.42 3.74 1.74 4.66 1.32.14-1.04.56-1.74 1.02-2.14-3.56-.4-7.28-1.78-7.28-7.9 0-1.74.62-3.18 1.64-4.3-.16-.4-.72-2.04.16-4.24 0 0 1.34-.42 4.4 1.64 1.28-.36 2.64-.54 4-.54s2.72.18 4 .54c3.06-2.08 4.4-1.64 4.4-1.64.88 2.2.32 3.84.16 4.24 1.02 1.12 1.64 2.54 1.64 4.3 0 6.14-3.74 7.5-7.3 7.9.58.5 1.08 1.46 1.08 2.96 0 2.14-.02 3.86-.02 4.4 0 .42.3.92 1.1.76C27.42 29.06 32 23.06 32 16c0-8.84-7.16-16-16-16z"/></symbol><symbol id="youtube" viewBox="0 0 32 32"><path d="M31.331 8.248a4.035 4.035 0 0 0-2.801-2.841l-.028-.007c-2.495-.673-12.501-.673-12.501-.673s-10.007 0-12.503.673A4.038 4.038 0 0 0 .677 8.22l-.007.028C.001 10.76.001 16 .001 16s0 5.24.669 7.752a4.035 4.035 0 0 0 2.801 2.841l.028.007c2.495.673 12.501.673 12.501.673s10.007 0 12.503-.673a4.037 4.037 0 0 0 2.823-2.82l.007-.028c.668-2.512.668-7.752.668-7.752s0-5.24-.669-7.752zM12.727 20.757v-9.515l8.364 4.757-8.364 4.757z"/></symbol><symbol id="youtube-logo" viewBox="0 0 48 32"><path fill="red" style="fill:var(--color1,red)" d="M41.69 7.055a4.639 4.639 0 0 0-3.265-3.285C35.546 2.993 24 2.993 24 2.993s-11.546 0-14.425.777A4.64 4.64 0 0 0 6.31 7.055C5.539 9.953 5.539 16 5.539 16s0 6.047.771 8.945a4.64 4.64 0 0 0 3.264 3.286c2.879.776 14.425.776 14.425.776s11.546 0 14.425-.776a4.642 4.642 0 0 0 3.265-3.286c.772-2.898.772-8.945.772-8.945s0-6.047-.772-8.945z"/><path fill="#fff" style="fill:var(--color2,#fff)" d="m20.224 21.49 9.65-5.49-9.65-5.49z"/></symbol></defs></svg>