<svg xmlns="http://www.w3.org/2000/svg" viewBox="0 0 1456 1024"><path fill="red" d="M1423.038 159.901c-16.716-62.938-65.961-112.505-128.503-129.327C1181.199.002 726.7.002 726.7.002s-454.493 0-567.835 30.572C96.323 47.396 47.066 96.963 30.362 159.901-.004 273.98-.004 512.003-.004 512.003s0 238.011 30.366 352.102c16.704 62.945 65.961 112.499 128.497 129.339 113.342 30.558 567.835 30.558 567.835 30.558s454.499 0 567.835-30.558c62.542-16.834 111.787-66.395 128.503-129.333 30.373-114.091 30.373-352.102 30.373-352.102s0-238.023-30.373-352.102z"/><path fill="#fff" d="m578.054 728.107 379.868-216.093-379.868-216.117z"/></svg>