<?xml version="1.0" standalone="no"?>
<!DOCTYPE svg PUBLIC "-//W3C//DTD SVG 20010904//EN"
 "http://www.w3.org/TR/2001/REC-SVG-20010904/DTD/svg10.dtd">
<svg version="1.0" xmlns="http://www.w3.org/2000/svg"
 width="71.000000pt" height="71.000000pt" viewBox="0 0 71.000000 71.000000"
 preserveAspectRatio="xMidYMid meet">
<metadata>
Created by potrace 1.14, written by Peter Selinger 2001-2017
</metadata>
<g transform="translate(0.000000,71.000000) scale(0.100000,-0.100000)"
fill="#000000" stroke="none">
<path d="M90 658 c-48 -18 -49 -26 -50 -304 l0 -261 26 -24 c26 -24 26 -24
272 -25 136 -1 258 3 271 8 49 18 50 26 51 304 0 248 -1 261 -20 282 -12 12
-24 23 -28 24 -29 6 -503 3 -522 -4z m90 -37 c3 0 5 -13 4 -28 -1 -16 -3 -38
-3 -50 -1 -21 -6 -23 -51 -23 l-50 0 0 39 c0 49 20 70 62 67 18 -2 35 -4 38
-5z m296 -111 c0 -63 -1 -120 -3 -125 -3 -9 -208 -13 -243 -6 -5 1 -6 244 -1
247 0 0 56 0 124 0 l122 -1 1 -115z m129 104 c8 -9 15 -33 15 -55 l0 -39 -52
0 -53 0 0 54 0 54 37 0 c21 1 45 -6 53 -14z m-424 -144 c1 -13 1 -78 0 -87 -1
-5 -24 -8 -51 -8 l-50 -1 0 53 0 53 50 0 c28 0 50 -4 51 -10z m439 -43 l0 -52
-50 0 c-52 0 -52 0 -52 50 0 55 0 55 52 55 l50 0 0 -53z m-445 -99 c9 -5 11
-30 6 -83 -1 -11 -14 -15 -51 -15 l-50 0 0 48 c0 27 2 51 5 54 7 7 78 4 90 -4z
m296 3 c3 0 5 -56 5 -123 l-1 -123 -122 -1 c-68 -1 -124 1 -124 5 -3 12 -6
236 -3 241 2 5 224 5 245 1z m149 -49 l0 -53 -52 3 -53 3 2 38 c2 58 6 63 57
63 l46 0 0 -54z m-439 -114 c0 -13 2 -35 3 -50 1 -16 2 -28 1 -28 0 -1 -16 -3
-36 -6 -47 -7 -69 14 -69 67 l0 39 50 0 c45 0 50 -2 51 -22z m439 -15 c0 -52
-11 -65 -59 -69 -44 -3 -43 -5 -43 66 0 17 1 32 1 35 1 3 24 5 51 5 l50 0 0
-37z"/>
</g>
</svg>
