<svg xmlns="http://www.w3.org/2000/svg" aria-hidden="true" style="position:absolute;width:0;height:0;overflow:hidden">
  <defs>
        <!-- Кнопка закриття на модалках -->
    <symbol id="close" viewBox="0 0 32 32">
<path d="M5.86 4.040l-1.82 1.82 10.14 10.14-10.2 10.22 1.8 1.8 10.22-10.2 10.2 10.2 1.82-1.82-10.2-10.2 10.14-10.14-1.82-1.82-10.14 10.14z"></path>
</symbol>
        <!-- Сердечко в футтері -->
    <symbol id="favorite" viewBox="0 0 34 32">
      <path d="m17.231 31.704-2.412-2.412C5.859 21.366.001 16.024.001 9.477.001 4.135 4.136 0 9.478 0c2.929 0 5.858 1.378 7.754 3.618C19.127 1.378 22.057 0 24.986 0c5.342 0 9.477 4.135 9.477 9.477 0 6.548-5.858 11.889-14.818 19.815l-2.412 2.412z"/>
    </symbol>
        <!-- Значок фільм -->
    <symbol id="film" viewBox="0 0 32 32">
      <path stroke-linecap="round" stroke-linejoin="round" stroke-width="2" d="M26.427 2.667H5.574a2.907 2.907 0 0 0-2.907 2.907v20.853a2.907 2.907 0 0 0 2.907 2.907h20.853a2.907 2.907 0 0 0 2.907-2.907V5.574a2.907 2.907 0 0 0-2.907-2.907zM9.333 2.667v26.667M22.667 2.667v26.667M2.667 16h26.667M2.667 9.334h6.667M2.667 22.666h6.667M22.667 22.666h6.667M22.667 9.334h6.667"/>
    </symbol>
        <!-- Значок пошук -->
    <symbol id="search" viewBox="0 0 32 32">
      <path stroke-linecap="round" stroke-linejoin="round" stroke-width="2.286" d="M14.667 25.333c5.891 0 10.667-4.776 10.667-10.667S20.558 3.999 14.667 3.999 4 8.775 4 14.666s4.776 10.667 10.667 10.667zM27.999 28l-5.8-5.8"/>
    </symbol>
        <!-- Logo Linkedin -->
    <symbol id="linkedin" viewBox="0 0 32 32">
     <path d="M7.449 10.295h-6.424c-0.285 0-0.516 0.231-0.516 0.516v20.638c0 0.285 0.231 0.516 0.516 0.516h6.424c0.285 0 0.516-0.231 0.516-0.516v-20.638c0-0.285-0.231-0.516-0.516-0.516z"></path>
     <path d="M4.239 0.035c-2.337 0-4.239 1.9-4.239 4.234 0 2.336 1.902 4.236 4.239 4.236 2.336 0 4.236-1.9 4.236-4.236s-1.9-4.234-4.236-4.234z"></path>
     <path d="M23.789 9.782c-2.58 0-4.487 1.109-5.644 2.369v-1.34c0-0.285-0.231-0.516-0.516-0.516h-6.152c-0.285 0-0.516 0.231-0.516 0.516v20.638c0 0.285 0.231 0.516 0.516 0.516h6.41c0.285 0 0.516-0.231 0.516-0.516v-10.211c0-3.441 0.935-4.781 3.333-4.781 2.612 0 2.82 2.149 2.82 4.958v10.034c0 0.285 0.231 0.516 0.516 0.516h6.412c0.285 0 0.516-0.231 0.516-0.516v-11.32c0-5.116-0.976-10.347-8.211-10.347z"></path>
     </symbol>
        <!-- Logo GitHub -->
     <symbol id="github" viewBox="0 0 32 32">
     <path d="M16 0c-8.84 0-16 7.16-16 16 0 7.080 4.58 13.060 10.94 15.18 0.8 0.14 1.1-0.34 1.1-0.76 0-0.38-0.020-1.64-0.020-2.98-4.020 0.74-5.060-0.98-5.38-1.88-0.18-0.46-0.96-1.88-1.64-2.26-0.56-0.3-1.36-1.040-0.020-1.060 1.26-0.020 2.16 1.16 2.46 1.64 1.44 2.42 3.74 1.74 4.66 1.32 0.14-1.040 0.56-1.74 1.020-2.14-3.56-0.4-7.28-1.78-7.28-7.9 0-1.74 0.62-3.18 1.64-4.3-0.16-0.4-0.72-2.040 0.16-4.24 0 0 1.34-0.42 4.4 1.64 1.28-0.36 2.64-0.54 4-0.54s2.72 0.18 4 0.54c3.060-2.080 4.4-1.64 4.4-1.64 0.88 2.2 0.32 3.84 0.16 4.24 1.020 1.12 1.64 2.54 1.64 4.3 0 6.14-3.74 7.5-7.3 7.9 0.58 0.5 1.080 1.46 1.080 2.96 0 2.14-0.020 3.86-0.020 4.4 0 0.42 0.3 0.92 1.1 0.76 6.32-2.12 10.9-8.12 10.9-15.18 0-8.84-7.16-16-16-16z"></path>
     </symbol>
        <!-- Trailer Logo -->
      <symbol id="youtube" viewBox="0 0 32 32">
      <path d="M31.331 8.248c-0.377-1.389-1.444-2.462-2.801-2.841l-0.028-0.007c-2.495-0.673-12.501-0.673-12.501-0.673s-10.007 0-12.503 0.673c-1.384 0.387-2.451 1.46-2.821 2.82l-0.007 0.028c-0.669 2.512-0.669 7.752-0.669 7.752s0 5.24 0.669 7.752c0.377 1.389 1.444 2.462 2.801 2.841l0.028 0.007c2.495 0.673 12.501 0.673 12.501 0.673s10.007 0 12.503-0.673c1.385-0.386 2.452-1.459 2.823-2.82l0.007-0.028c0.668-2.512 0.668-7.752 0.668-7.752s0-5.24-0.669-7.752zM12.727 20.757v-9.515l8.364 4.757-8.364 4.757z"></path>
      </symbol>
      <symbol id="youtube-logo" viewBox="0 0 48 32">
      <path fill="#f00" style="fill: var(--color1, #f00)" d="M41.69 7.055c-0.425-1.599-1.676-2.858-3.265-3.285-2.879-0.777-14.425-0.777-14.425-0.777s-11.546 0-14.425 0.777c-1.589 0.427-2.84 1.687-3.265 3.285-0.771 2.898-0.771 8.945-0.771 8.945s0 6.047 0.771 8.945c0.424 1.599 1.676 2.858 3.264 3.286 2.879 0.776 14.425 0.776 14.425 0.776s11.546 0 14.425-0.776c1.589-0.428 2.84-1.687 3.265-3.286 0.772-2.898 0.772-8.945 0.772-8.945s0-6.047-0.772-8.945z"></path>
      <path fill="#fff" style="fill: var(--color2, #fff)" d="M20.224 21.49l9.65-5.49-9.65-5.49z"></path>
      </symbol>
  </defs>
</svg>
